<svg width="30" height="30" viewBox="0 0 30 30" fill="none" xmlns="http://www.w3.org/2000/svg">
<path fill-rule="evenodd" clip-rule="evenodd" d="M15.0191 0.0552673C11.4536 0.0516435 8.0034 1.31786 5.28672 3.627C2.57004 5.93615 0.764471 9.13729 0.193598 12.6567C-0.377275 16.1762 0.323862 19.7839 2.17135 22.8334C4.01883 25.8829 6.89191 28.1748 10.2757 29.2984C11.0217 29.4365 11.2981 28.9668 11.2981 28.5707C11.2981 28.1747 11.2981 27.2721 11.2981 26.0194C7.12574 26.9405 6.24153 24.0116 6.24153 24.0116C5.96352 23.1038 5.37288 22.3239 4.57445 21.8103C3.22052 20.8892 4.68497 20.8892 4.68497 20.8892C5.15958 20.9563 5.61271 21.1304 6.01005 21.3985C6.40739 21.6666 6.73853 22.0216 6.97837 22.4366C7.18216 22.8061 7.45691 23.1317 7.78686 23.3948C8.1168 23.6579 8.49546 23.8532 8.90108 23.9696C9.30671 24.086 9.73132 24.1211 10.1506 24.073C10.5698 24.0249 10.9754 23.8945 11.3441 23.6892C11.4019 22.9315 11.7286 22.2194 12.2651 21.6813C8.93097 21.3037 5.43101 20.0142 5.43101 14.2669C5.40812 12.7776 5.95884 11.3365 6.96915 10.242C6.51827 8.94717 6.57088 7.53013 7.11652 6.2723C7.11652 6.2723 8.37835 5.86704 11.2428 7.81044C13.7025 7.1351 16.2988 7.1351 18.7585 7.81044C21.6229 5.86704 22.8756 6.2723 22.8756 6.2723C23.4269 7.52834 23.4828 8.94643 23.0321 10.242C24.0424 11.3365 24.5932 12.7776 24.5703 14.2669C24.5703 20.0327 21.0611 21.2945 17.7177 21.6353C18.0762 21.9957 18.353 22.4289 18.5294 22.9056C18.7058 23.3824 18.7777 23.8915 18.7401 24.3984C18.7401 26.4063 18.7401 28.0273 18.7401 28.5155C18.7401 29.0036 19.0072 29.3812 19.7716 29.2431C23.1448 28.1089 26.0054 25.8134 27.8431 22.7659C29.6809 19.7185 30.3764 16.1173 29.8055 12.6046C29.2347 9.09202 27.4346 5.89639 24.7263 3.58776C22.0181 1.27912 18.5778 0.0076062 15.0191 0V0.0552673Z" fill="#9C8C75"/>
</svg>
